<?xml version="1.0" encoding="utf-8"?>
<!-- Generator: Adobe Illustrator 16.0.0, SVG Export Plug-In . SVG Version: 6.00 Build 0)  -->
<!DOCTYPE svg PUBLIC "-//W3C//DTD SVG 1.1//EN" "http://www.w3.org/Graphics/SVG/1.1/DTD/svg11.dtd">
<svg version="1.1" id="Layer_1" xmlns="http://www.w3.org/2000/svg" xmlns:xlink="http://www.w3.org/1999/xlink" x="0px" y="0px"
	 width="60.334px" height="41px" viewBox="15.083 10.25 60.334 41" enable-background="new 15.083 10.25 60.334 41"
	 xml:space="preserve">
<path fill="#FFFFFF" d="M28.809,40.108c0,1.817-1.473,3.289-3.289,3.289l0,0c-1.816,0-3.289-1.472-3.289-3.289V21.391
	c0-1.815,1.473-3.289,3.289-3.289l0,0c1.815,0,3.289,1.473,3.289,3.289V40.108L28.809,40.108z">
<animateTransform  fill="remove" type="translate" restart="always" calcMode="linear" additive="replace" accumulate="none" repeatCount="indefinite" values="0.8;0,-8;0.8" dur="1s" begin="0.1" arrtibuteType="XML" attributeName="transform" id="asdf">
		</animateTransform>
</path>
<path fill="#FFFFFF" d="M38.672,40.108c0,1.817-1.472,3.289-3.289,3.289l0,0c-1.816,0-3.288-1.472-3.288-3.289V21.391
	c0-1.815,1.472-3.289,3.288-3.289l0,0c1.816,0,3.289,1.473,3.289,3.289V40.108L38.672,40.108z">
<animateTransform  fill="remove" type="translate" restart="always" calcMode="linear" additive="replace" accumulate="none" repeatCount="indefinite" values="0.8;0,-8;0.8" dur="1s" begin="0.2" arrtibuteType="XML" attributeName="transform" id="asdf">
		</animateTransform>
</path>
<path fill="#FFFFFF" d="M48.538,40.108c0,1.817-1.472,3.289-3.289,3.289l0,0c-1.816,0-3.288-1.472-3.288-3.289V21.391
	c0-1.815,1.472-3.289,3.288-3.289l0,0c1.815,0,3.289,1.473,3.289,3.289V40.108L48.538,40.108z">
<animateTransform  fill="remove" type="translate" restart="always" calcMode="linear" additive="replace" accumulate="none" repeatCount="indefinite" values="0.8;0,-8;0.8" dur="1s" begin="0.3" arrtibuteType="XML" attributeName="transform" id="asdf">
		</animateTransform>
</path>
<path fill="#FFFFFF" d="M58.402,40.108c0,1.817-1.472,3.289-3.288,3.289l0,0c-1.816,0-3.289-1.472-3.289-3.289V21.391
	c0-1.815,1.473-3.289,3.289-3.289l0,0c1.815,0,3.288,1.473,3.288,3.289V40.108L58.402,40.108z">
<animateTransform  fill="remove" type="translate" restart="always" calcMode="linear" additive="replace" accumulate="none" repeatCount="indefinite" values="0.8;0,-8;0.8" dur="1s" begin="0.4" arrtibuteType="XML" attributeName="transform" id="asdf">
		</animateTransform>
</path>
<path fill="#FFFFFF" d="M68.269,40.108c0,1.817-1.472,3.289-3.289,3.289l0,0c-1.816,0-3.288-1.472-3.288-3.289V21.391
	c0-1.815,1.472-3.289,3.288-3.289l0,0c1.815,0,3.289,1.473,3.289,3.289V40.108z">
<animateTransform  fill="remove" type="translate" restart="always" calcMode="linear" additive="replace" accumulate="none" repeatCount="indefinite" values="0.8;0,-8;0.8" dur="1s" begin="0.5" arrtibuteType="XML" attributeName="transform" id="asdf">
		</animateTransform>
</path>
</svg>
